<?xml version="1.0" encoding="UTF-8" standalone="no"?><!DOCTYPE svg PUBLIC "-//W3C//DTD SVG 1.1//EN" "http://www.w3.org/Graphics/SVG/1.1/DTD/svg11.dtd"><svg width="100%" height="100%" viewBox="0 0 134 30" version="1.1" xmlns="http://www.w3.org/2000/svg" xmlns:xlink="http://www.w3.org/1999/xlink" xml:space="preserve" xmlns:serif="http://www.serif.com/" style="fill-rule:evenodd;clip-rule:evenodd;stroke-linejoin:round;stroke-miterlimit:2;"><rect id="logo_large" x="0" y="0" width="133.5" height="30" style="fill:none;"/><g id="logo_large1" serif:id="logo_large"><path d="M38.872,8.196l1.648,0.03c-0.033,1.737 0,6.776 0,6.776l0,0.005c0,1.153 0.312,2.509 0.977,3.501c0.665,0.992 1.596,1.658 3.162,1.658c1.566,0 2.471,-0.658 3.118,-1.648c0.646,-0.989 0.945,-2.351 0.953,-3.516l0.026,-3.514l0,-0.005l0.01,-3.275l1.648,0.006l-0.01,3.279l0,0.003l-0.026,3.516c-0.01,1.422 -0.336,3.053 -1.22,4.409c-0.886,1.354 -2.421,2.393 -4.499,2.393c-2.078,0 -3.626,-1.033 -4.533,-2.385c-0.905,-1.352 -1.253,-2.984 -1.254,-4.417l0,-0.005c0,-0.009 -0.035,-4.996 0,-6.811Zm14.605,13.22l-1.65,0l0,-13.18l1.348,0c1.647,-0.019 3.602,-0.019 3.602,-0.019c1.379,0 2.949,0.336 4.252,1.213c1.301,0.877 2.294,2.379 2.294,4.388c0,2.008 -0.998,3.497 -2.301,4.354c-0.53,0.349 -1.104,0.608 -1.689,0.793l2.468,2.469l-2.333,0l-2.102,-2.102c-0.197,0.014 -0.392,0.021 -0.583,0.023l-3.306,0.022l0,2.039Zm20.804,-11.547l-8.251,0l0,2.475l6.6,0l0,1.65l-6.6,0l0,5.775l8.251,0l0,1.65l-9.901,0l0,-13.2l9.901,0l0,1.65Zm-46.18,11.547l-1.65,0l0,-13.196l0.397,0l0,0c1.717,-0.034 4.519,-0.034 4.519,-0.034c1.354,0 2.92,0.269 4.231,1.086c1.308,0.817 2.315,2.283 2.315,4.293c0,2.007 -0.996,3.472 -2.297,4.29c-1.304,0.818 -2.861,1.088 -4.215,1.088l-3.3,0l0,2.473Zm28.676,-11.549c0,0 -1.738,0.001 -3.3,0.017l0,7.84l3.294,-0.022c1.108,-0.008 2.404,-0.295 3.343,-0.911c0.938,-0.617 1.561,-1.475 1.561,-2.973c0,-1.498 -0.629,-2.384 -1.57,-3.018c-0.94,-0.634 -2.232,-0.933 -3.328,-0.933Zm-25.41,-0.032c0,0 -1.713,0 -3.266,0.016l0,7.444l3.3,0c1.12,0 2.409,-0.255 3.333,-0.836c0.924,-0.581 1.532,-1.393 1.532,-2.894c0,-1.499 -0.612,-2.31 -1.545,-2.892c-0.932,-0.582 -2.233,-0.838 -3.354,-0.838Z" style="fill:#1a8cff;fill-rule:nonzero;"/><path d="M76.986,21.419l-1.65,0l0,-13.2l1.65,0l7.425,7.955l0,-7.955l1.65,0l0,13.2l-1.65,0l0,-2.68l-7.425,-7.956l0,10.636Zm19.85,0l-1.65,0l-0.413,-1.65l-5.775,0l-0.412,1.65l-1.65,0l3.3,-13.2l3.3,0l3.3,13.2Zm6.913,0l-3.3,0l-3.3,-13.2l1.636,0l0.006,0.022l-0.01,0.006l2.776,11.439l0.007,-0.047l0.029,0.13l1.013,0l1.151,-4.876l-0.003,0l1.668,-6.674l1.627,0l-3.3,13.2Zm-11.357,-11.55l-1.012,0l-1.875,8.25l4.762,0l-1.875,-8.25Z" style="fill:#00d5ff;fill-rule:nonzero;"/></g></svg>